<svg xmlns="http://www.w3.org/2000/svg" version="1.1" data-icon="dial" data-container-transform="translate(0 2)" viewBox="0 0 16 20" x="0px" y="0px"><path d="M7.5 0c-4.165 0-7.5 3.335-7.5 7.5a.5.5 0 1 0 1 0c0-3.635 2.865-6.5 6.5-6.5s6.5 2.865 6.5 6.5a.5.5 0 1 0 1 0c0-4.165-3.335-7.5-7.5-7.5zm-.5 3.063c-2.246.252-4 2.124-4 4.438 0 2.485 2.015 4.5 4.5 4.5s4.5-2.015 4.5-4.5c0-2.314-1.754-4.185-4-4.438v4.438c0 .3-.2.5-.5.5s-.5-.2-.5-.5v-4.438z" transform="translate(0 2)"/><text x="0" y="31" fill="#000000" font-size="5px" font-weight="bold" font-family="'Helvetica Neue', Helvetica, Arial-Unicode, Arial, Sans-serif">Created by useiconic.com</text><text x="0" y="36" fill="#000000" font-size="5px" font-weight="bold" font-family="'Helvetica Neue', Helvetica, Arial-Unicode, Arial, Sans-serif">from the Noun Project</text></svg>