<svg xmlns="http://www.w3.org/2000/svg" xmlns:xlink="http://www.w3.org/1999/xlink" viewBox="0 0 197.04 197.04">
  <defs>
    <path id="a" d="M-96.977-67.405h792v612h-792z"/>
  </defs>
  <clipPath id="b">
    <use xlink:href="#a" overflow="visible"/>
  </clipPath>
  <g clip-path="url(#b)">
    <defs>
      <path id="c" d="M-96.977-67.405h792v612h-792z"/>
    </defs>
    <clipPath id="d">
      <use xlink:href="#c" overflow="visible"/>
    </clipPath>
    <path d="M135.318 135.318c12.886-12.886 20.856-30.687 20.856-50.35 0-39.327-31.88-71.207-71.206-71.207-39.327 0-71.207 31.88-71.207 71.21 0 18.47 7.04 35.3 18.57 47.96" clip-path="url(#d)" fill="none" stroke="#6D6E71" stroke-width="3.691" stroke-miterlimit="10"/>
    <path d="M43.21 126.724c23.062 23.06 60.453 23.06 83.514 0s23.06-60.452 0-83.513c-23.06-23.06-60.452-23.06-83.513 0-23.06 23.07-23.06 60.46 0 83.52" clip-path="url(#d)" fill="#6D6E71"/>
  </g>
  <g clip-path="url(#b)">
    <defs>
      <path id="e" d="M49.38 49.38c-19.78 19.778-19.78 51.846 0 71.625 19.778 19.778 51.845 19.778 71.624 0 19.778-19.78 19.778-51.847 0-71.625-9.89-9.89-22.85-14.834-35.812-14.834-12.962 0-25.923 4.945-35.813 14.834"/>
    </defs>
    <clipPath id="f">
      <use xlink:href="#e" overflow="visible"/>
    </clipPath>
    <linearGradient id="g" gradientUnits="userSpaceOnUse" x1="-96.977" y1="544.595" x2="-95.977" y2="544.595" gradientTransform="matrix(0 101.3 101.3 0 -55078.1 9857.5)">
      <stop offset="0" stop-color="#939598"/>
      <stop offset="1" stop-color="#6D6E71"/>
    </linearGradient>
    <path clip-path="url(#f)" fill="url(#g)" d="M29.602 34.546h111.18v106.237H29.602z"/>
  </g>
  <g clip-path="url(#b)">
    <defs>
      <path id="h" d="M-96.977-67.405h792v612h-792z"/>
    </defs>
    <clipPath id="i">
      <use xlink:href="#h" overflow="visible"/>
    </clipPath>
    <path transform="rotate(45 56.5 56.5)" clip-path="url(#i)" fill="#E6E7E8" d="M46.424 54.673H66.61v3.69H46.424z"/>
    <g opacity=".2" clip-path="url(#i)">
      <defs>
        <path id="j" d="M49.998 48.077H64.96v14.92H49.998z"/>
      </defs>
      <clipPath id="k">
        <use xlink:href="#j" overflow="visible"/>
      </clipPath>
      <g clip-path="url(#k)">
        <defs>
          <path id="l" d="M64.312 62.997L49.998 48.763l.687-.686L64.96 62.35z"/>
        </defs>
        <clipPath id="m">
          <use xlink:href="#l" overflow="visible"/>
        </clipPath>
        <linearGradient id="n" gradientUnits="userSpaceOnUse" x1="-96.977" y1="544.607" x2="-95.977" y2="544.607" gradientTransform="matrix(.7 -.7 -.7 -.7 498.2 363.6)">
          <stop offset="0" stop-color="#FFF"/>
          <stop offset=".023" stop-color="#F4F4F4"/>
          <stop offset=".184" stop-color="#BEC0C2"/>
          <stop offset=".342" stop-color="#929497"/>
          <stop offset=".495" stop-color="#707274"/>
          <stop offset=".64" stop-color="#535456"/>
          <stop offset=".776" stop-color="#38383A"/>
          <stop offset=".9" stop-color="#151415"/>
          <stop offset="1"/>
        </linearGradient>
        <path clip-path="url(#m)" fill="url(#n)" d="M42.538 55.537l14.94-14.94 14.94 14.94-14.94 14.94"/>
      </g>
    </g>
    <path clip-path="url(#i)" fill="#FFF" d="M62.227 65.175L47.913 50.94l.188-.236 14.28 14.273"/>
  </g>
</svg>
