<svg xmlns="http://www.w3.org/2000/svg" xmlns:xlink="http://www.w3.org/1999/xlink" viewBox="0 0 144.239 144.24">
  <defs>
    <path id="a" d="M-575.404-117.36h792v612h-792z"/>
  </defs>
  <clipPath id="b">
    <use xlink:href="#a" overflow="visible"/>
  </clipPath>
  <g clip-path="url(#b)">
    <defs>
      <path id="c" d="M-575.404-117.36h792v612h-792z"/>
    </defs>
    <clipPath id="d">
      <use xlink:href="#c" overflow="visible"/>
    </clipPath>
    <path d="M89.99 82.98c5.04-6.624 8.035-14.89 8.035-23.857 0-21.77-17.648-39.418-39.418-39.418S19.19 37.353 19.19 59.123c0 8.927 2.967 17.162 7.97 23.77" clip-path="url(#d)" fill="none" stroke="#6D6E71" stroke-width="2.768" stroke-miterlimit="10"/>
    <path d="M37.556 79.66c11.626 11.625 30.477 11.625 42.103 0 11.62-11.627 11.62-30.478 0-42.104-11.63-11.627-30.48-11.627-42.11 0-11.626 11.626-11.626 30.477 0 42.103" clip-path="url(#d)" fill="#BCBEC0"/>
  </g>
  <g clip-path="url(#b)">
    <defs>
      <path id="e" d="M34.545 58.72c0 13.352 10.824 24.176 24.176 24.176 13.358 0 24.18-10.824 24.18-24.175 0-13.35-10.822-24.17-24.173-24.17-13.35 0-24.175 10.825-24.175 24.177"/>
    </defs>
    <clipPath id="f">
      <use xlink:href="#e" overflow="visible"/>
    </clipPath>
    <linearGradient id="g" gradientUnits="userSpaceOnUse" x1="-575.405" y1="494.64" x2="-574.405" y2="494.64" gradientTransform="matrix(0 48.3 48.3 0 -23857.1 27855.3)">
      <stop offset="0" stop-color="#FFF"/>
      <stop offset="1" stop-color="#BCBEC0"/>
    </linearGradient>
    <path clip-path="url(#f)" fill="url(#g)" d="M34.545 34.546h48.35v48.35h-48.35z"/>
  </g>
  <g clip-path="url(#b)">
    <defs>
      <path id="h" d="M-575.404-117.36h792v612h-792z"/>
    </defs>
    <clipPath id="i">
      <use xlink:href="#h" overflow="visible"/>
    </clipPath>
    <path clip-path="url(#i)" fill="none" stroke="#6D6E71" stroke-width="2.768" stroke-miterlimit="10" d="M41.706 75.895L55.98 61.62"/>
    <g opacity=".44" clip-path="url(#i)">
      <defs>
        <path id="j" d="M40.703 60.643h15.16v15.202h-15.16z"/>
      </defs>
      <clipPath id="k">
        <use xlink:href="#j" overflow="visible"/>
      </clipPath>
      <g clip-path="url(#k)">
        <defs>
          <path id="l" d="M55.863 61.53L41.63 75.846l-.927-.927 14.273-14.28z"/>
        </defs>
        <clipPath id="m">
          <use xlink:href="#l" overflow="visible"/>
        </clipPath>
        <linearGradient id="n" gradientUnits="userSpaceOnUse" x1="-575.404" y1="494.652" x2="-574.404" y2="494.652" gradientTransform="matrix(-.9 -.9 -.9 .9 -26.2 -924.6)">
          <stop offset="0" stop-color="#FFF"/>
          <stop offset=".023" stop-color="#F4F4F4"/>
          <stop offset=".184" stop-color="#BEC0C2"/>
          <stop offset=".342" stop-color="#929497"/>
          <stop offset=".495" stop-color="#707274"/>
          <stop offset=".64" stop-color="#535456"/>
          <stop offset=".776" stop-color="#38383A"/>
          <stop offset=".9" stop-color="#151415"/>
          <stop offset="1"/>
        </linearGradient>
        <path clip-path="url(#m)" fill="url(#n)" d="M48.283 83.426l-15.18-15.182 15.18-15.182 15.182 15.182"/>
      </g>
    </g>
    <g opacity=".4" clip-path="url(#i)">
      <defs>
        <path id="o" d="M42.713 62.63h14.47v14.464h-14.47z"/>
      </defs>
      <clipPath id="p">
        <use xlink:href="#o" overflow="visible"/>
      </clipPath>
      <path clip-path="url(#p)" fill="#FFF" d="M57.184 62.78L42.95 77.094l-.237-.188L56.985 62.63"/>
    </g>
  </g>
</svg>
