<svg xmlns="http://www.w3.org/2000/svg" xmlns:xlink="http://www.w3.org/1999/xlink" version="1.1" x="0px" y="0px" viewBox="0 0 48 60" enable-background="new 0 0 48 48" xml:space="preserve"><g><g><path d="M24,47.5c-12.3,0-22.4-10-22.4-22.4c0-9.4,5.9-17.9,14.8-21c1-0.4,2.2,0.2,2.5,1.2c0.4,1-0.2,2.2-1.2,2.5    c-7.3,2.6-12.2,9.6-12.2,17.3c0,10.2,8.3,18.4,18.4,18.4s18.4-8.3,18.4-18.4c0-7.7-4.9-14.7-12.2-17.3c-1-0.4-1.6-1.5-1.2-2.5    c0.4-1,1.5-1.6,2.5-1.2c8.9,3.2,14.8,11.6,14.8,21C46.4,37.5,36.3,47.5,24,47.5z"/></g><g><path d="M24,23.1c-1.1,0-2-0.9-2-2V2.5c0-1.1,0.9-2,2-2s2,0.9,2,2v18.7C26,22.3,25.1,23.1,24,23.1z"/></g></g><text x="0" y="63" fill="#000000" font-size="5px" font-weight="bold" font-family="'Helvetica Neue', Helvetica, Arial-Unicode, Arial, Sans-serif">Created by Vectors Market</text><text x="0" y="68" fill="#000000" font-size="5px" font-weight="bold" font-family="'Helvetica Neue', Helvetica, Arial-Unicode, Arial, Sans-serif">from the Noun Project</text></svg>