<svg xmlns="http://www.w3.org/2000/svg" xmlns:xlink="http://www.w3.org/1999/xlink" version="1.0" x="0px" y="0px" viewBox="0 0 32 40" enable-background="new 0 0 32 32" xml:space="preserve"><path d="M28,18c0,6.629-5.375,12-12,12C9.371,30,4,24.629,4,18c0-5.223,3.34-9.652,8-11.301v4.41C9.617,12.496,8,15.047,8,18  c0,4.418,3.582,8,8,8s8-3.582,8-8c0-2.953-1.621-5.504-4-6.891v-4.41C24.656,8.348,28,12.777,28,18z M16,16c1.105,0,2-0.895,2-2V4  c0-1.104-0.895-2-2-2s-2,0.896-2,2v10C14,15.105,14.895,16,16,16z"/><text x="0" y="47" fill="#000000" font-size="5px" font-weight="bold" font-family="'Helvetica Neue', Helvetica, Arial-Unicode, Arial, Sans-serif">Created by Zlatko Najdenovski</text><text x="0" y="52" fill="#000000" font-size="5px" font-weight="bold" font-family="'Helvetica Neue', Helvetica, Arial-Unicode, Arial, Sans-serif">from the Noun Project</text></svg>